<svg width="33" height="33" viewBox="0 0 33 33" fill="none" xmlns="http://www.w3.org/2000/svg">
<g filter="url(#filter0_d_39_87)">
<circle cx="16.5" cy="14.5" r="14.5" fill="#72AF99"/>
</g>
<path fill-rule="evenodd" clip-rule="evenodd" d="M9 9.5C9 8.83696 9.26339 8.20107 9.73223 7.73223C10.2011 7.26339 10.837 7 11.5 7H13.375C14.038 7 14.6739 7.26339 15.1428 7.73223C15.6116 8.20107 15.875 8.83696 15.875 9.5V11.375C15.875 12.038 15.6116 12.6739 15.1428 13.1428C14.6739 13.6116 14.038 13.875 13.375 13.875H11.5C10.837 13.875 10.2011 13.6116 9.73223 13.1428C9.26339 12.6739 9 12.038 9 11.375V9.5ZM17.125 9.5C17.125 8.83696 17.3884 8.20107 17.8572 7.73223C18.3261 7.26339 18.962 7 19.625 7H21.5C22.163 7 22.7989 7.26339 23.2678 7.73223C23.7366 8.20107 24 8.83696 24 9.5V11.375C24 12.038 23.7366 12.6739 23.2678 13.1428C22.7989 13.6116 22.163 13.875 21.5 13.875H19.625C18.962 13.875 18.3261 13.6116 17.8572 13.1428C17.3884 12.6739 17.125 12.038 17.125 11.375V9.5ZM9 17.625C9 16.962 9.26339 16.3261 9.73223 15.8572C10.2011 15.3884 10.837 15.125 11.5 15.125H13.375C14.038 15.125 14.6739 15.3884 15.1428 15.8572C15.6116 16.3261 15.875 16.962 15.875 17.625V19.5C15.875 20.163 15.6116 20.7989 15.1428 21.2678C14.6739 21.7366 14.038 22 13.375 22H11.5C10.837 22 10.2011 21.7366 9.73223 21.2678C9.26339 20.7989 9 20.163 9 19.5V17.625ZM17.125 17.625C17.125 16.962 17.3884 16.3261 17.8572 15.8572C18.3261 15.3884 18.962 15.125 19.625 15.125H21.5C22.163 15.125 22.7989 15.3884 23.2678 15.8572C23.7366 16.3261 24 16.962 24 17.625V19.5C24 20.163 23.7366 20.7989 23.2678 21.2678C22.7989 21.7366 22.163 22 21.5 22H19.625C18.962 22 18.3261 21.7366 17.8572 21.2678C17.3884 20.7989 17.125 20.163 17.125 19.5V17.625Z" fill="white"/>
<defs>
<filter id="filter0_d_39_87" x="0" y="0" width="33" height="33" filterUnits="userSpaceOnUse" color-interpolation-filters="sRGB">
<feFlood flood-opacity="0" result="BackgroundImageFix"/>
<feColorMatrix in="SourceAlpha" type="matrix" values="0 0 0 0 0 0 0 0 0 0 0 0 0 0 0 0 0 0 127 0" result="hardAlpha"/>
<feOffset dy="2"/>
<feGaussianBlur stdDeviation="1"/>
<feComposite in2="hardAlpha" operator="out"/>
<feColorMatrix type="matrix" values="0 0 0 0 0 0 0 0 0 0 0 0 0 0 0 0 0 0 0.1 0"/>
<feBlend mode="normal" in2="BackgroundImageFix" result="effect1_dropShadow_39_87"/>
<feBlend mode="normal" in="SourceGraphic" in2="effect1_dropShadow_39_87" result="shape"/>
</filter>
</defs>
</svg>
