<svg width="33" height="33" viewBox="0 0 33 33" fill="none" xmlns="http://www.w3.org/2000/svg">
<g filter="url(#filter0_d_39_83)">
<circle cx="16.5" cy="14.5" r="14.5" fill="white"/>
<circle cx="16.5" cy="14.5" r="14" stroke="black" stroke-opacity="0.1"/>
</g>
<path d="M9 9.04545C9 8.50297 9.2155 7.9827 9.5991 7.5991C9.9827 7.2155 10.503 7 11.0455 7H13.0909C13.6334 7 14.1537 7.2155 14.5373 7.5991C14.9209 7.9827 15.1364 8.50297 15.1364 9.04545V11.0909C15.1364 11.6334 14.9209 12.1537 14.5373 12.5373C14.1537 12.9209 13.6334 13.1364 13.0909 13.1364H11.0455C10.503 13.1364 9.9827 12.9209 9.5991 12.5373C9.2155 12.1537 9 11.6334 9 11.0909V9.04545ZM9 17.9091C9 17.3666 9.2155 16.8463 9.5991 16.4627C9.9827 16.0791 10.503 15.8636 11.0455 15.8636H13.0909C13.6334 15.8636 14.1537 16.0791 14.5373 16.4627C14.9209 16.8463 15.1364 17.3666 15.1364 17.9091V19.9545C15.1364 20.497 14.9209 21.0173 14.5373 21.4009C14.1537 21.7845 13.6334 22 13.0909 22H11.0455C10.503 22 9.9827 21.7845 9.5991 21.4009C9.2155 21.0173 9 20.497 9 19.9545V17.9091ZM17.8636 9.04545C17.8636 8.50297 18.0791 7.9827 18.4627 7.5991C18.8463 7.2155 19.3666 7 19.9091 7H21.9545C22.497 7 23.0173 7.2155 23.4009 7.5991C23.7845 7.9827 24 8.50297 24 9.04545V11.0909C24 11.6334 23.7845 12.1537 23.4009 12.5373C23.0173 12.9209 22.497 13.1364 21.9545 13.1364H19.9091C19.3666 13.1364 18.8463 12.9209 18.4627 12.5373C18.0791 12.1537 17.8636 11.6334 17.8636 11.0909V9.04545ZM17.8636 17.9091C17.8636 17.3666 18.0791 16.8463 18.4627 16.4627C18.8463 16.0791 19.3666 15.8636 19.9091 15.8636H21.9545C22.497 15.8636 23.0173 16.0791 23.4009 16.4627C23.7845 16.8463 24 17.3666 24 17.9091V19.9545C24 20.497 23.7845 21.0173 23.4009 21.4009C23.0173 21.7845 22.497 22 21.9545 22H19.9091C19.3666 22 18.8463 21.7845 18.4627 21.4009C18.0791 21.0173 17.8636 20.497 17.8636 19.9545V17.9091Z" stroke="black" stroke-opacity="0.5" stroke-linecap="round" stroke-linejoin="round"/>
<defs>
<filter id="filter0_d_39_83" x="0" y="0" width="33" height="33" filterUnits="userSpaceOnUse" color-interpolation-filters="sRGB">
<feFlood flood-opacity="0" result="BackgroundImageFix"/>
<feColorMatrix in="SourceAlpha" type="matrix" values="0 0 0 0 0 0 0 0 0 0 0 0 0 0 0 0 0 0 127 0" result="hardAlpha"/>
<feOffset dy="2"/>
<feGaussianBlur stdDeviation="1"/>
<feComposite in2="hardAlpha" operator="out"/>
<feColorMatrix type="matrix" values="0 0 0 0 0 0 0 0 0 0 0 0 0 0 0 0 0 0 0.1 0"/>
<feBlend mode="normal" in2="BackgroundImageFix" result="effect1_dropShadow_39_83"/>
<feBlend mode="normal" in="SourceGraphic" in2="effect1_dropShadow_39_83" result="shape"/>
</filter>
</defs>
</svg>
