<svg width="33" height="33" viewBox="0 0 33 33" fill="none" xmlns="http://www.w3.org/2000/svg">
<g filter="url(#filter0_d_39_81)">
<circle cx="16.5" cy="14.5" r="14.5" fill="white"/>
<circle cx="16.5" cy="14.5" r="14" stroke="black" stroke-opacity="0.1"/>
</g>
<path d="M23.7407 13.68V20.72C23.7407 21.0595 23.6081 21.385 23.3719 21.6251C23.1358 21.8651 22.8155 22 22.4815 22H10.5185C10.1845 22 9.86424 21.8651 9.62809 21.6251C9.39193 21.385 9.25926 21.0595 9.25926 20.72V13.68M16.1852 8.24C16.1852 7.79697 16.0559 7.36389 15.8138 6.99552C15.5716 6.62716 15.2275 6.34005 14.8248 6.17051C14.4221 6.00097 13.979 5.95661 13.5516 6.04304C13.1241 6.12947 12.7314 6.34281 12.4232 6.65608C12.115 6.96935 11.9052 7.36848 11.8201 7.803C11.7351 8.23752 11.7787 8.6879 11.9455 9.09721C12.1123 9.50652 12.3948 9.85636 12.7572 10.1025C13.1196 10.3486 13.5456 10.48 13.9815 10.48H16.1852M16.1852 8.24V10.48M16.1852 8.24C16.1852 7.79697 16.3144 7.36389 16.5566 6.99552C16.7987 6.62716 17.1429 6.34005 17.5456 6.17051C17.9482 6.00097 18.3913 5.95661 18.8188 6.04304C19.2463 6.12947 19.6389 6.34281 19.9471 6.65608C20.2553 6.96935 20.4652 7.36848 20.5502 7.803C20.6353 8.23752 20.5916 8.6879 20.4248 9.09721C20.2581 9.50652 19.9756 9.85636 19.6132 10.1025C19.2508 10.3486 18.8247 10.48 18.3889 10.48H16.1852M16.1852 10.48V22M8.94444 13.68H24.0556C24.5769 13.68 25 13.2499 25 12.72V11.44C25 10.9101 24.5769 10.48 24.0556 10.48H8.94444C8.42311 10.48 8 10.9101 8 11.44V12.72C8 13.2499 8.42311 13.68 8.94444 13.68Z" stroke="black" stroke-opacity="0.5" stroke-linecap="round" stroke-linejoin="round"/>
<defs>
<filter id="filter0_d_39_81" x="0" y="0" width="33" height="33" filterUnits="userSpaceOnUse" color-interpolation-filters="sRGB">
<feFlood flood-opacity="0" result="BackgroundImageFix"/>
<feColorMatrix in="SourceAlpha" type="matrix" values="0 0 0 0 0 0 0 0 0 0 0 0 0 0 0 0 0 0 127 0" result="hardAlpha"/>
<feOffset dy="2"/>
<feGaussianBlur stdDeviation="1"/>
<feComposite in2="hardAlpha" operator="out"/>
<feColorMatrix type="matrix" values="0 0 0 0 0 0 0 0 0 0 0 0 0 0 0 0 0 0 0.1 0"/>
<feBlend mode="normal" in2="BackgroundImageFix" result="effect1_dropShadow_39_81"/>
<feBlend mode="normal" in="SourceGraphic" in2="effect1_dropShadow_39_81" result="shape"/>
</filter>
</defs>
</svg>
