<svg width="33" height="33" viewBox="0 0 33 33" fill="none" xmlns="http://www.w3.org/2000/svg">
<g filter="url(#filter0_d_39_89)">
<circle cx="16.5" cy="14.5" r="14.5" fill="#72AF99"/>
</g>
<path d="M13.8793 7.26679C13.4449 7.26679 13.0283 7.43255 12.7211 7.72761C12.4139 8.02266 12.2414 8.42284 12.2414 8.84012C12.2414 9.25739 12.4139 9.65757 12.7211 9.95262C13.0283 10.2477 13.4449 10.4134 13.8793 10.4134H15.5172V14.1894H8.63793C8.20352 14.1894 7.78691 14.0236 7.47974 13.7286C7.17257 13.4335 7 13.0334 7 12.6161V11.9868C7 11.1174 7.73379 10.4134 8.63793 10.4134H11.4272C11.0025 9.8074 10.838 9.06715 10.9682 8.34737C11.0983 7.62758 11.513 6.98396 12.1256 6.55098C12.7382 6.118 13.5013 5.92917 14.2554 6.02394C15.0096 6.11871 15.6964 6.48975 16.1724 7.05954C16.6484 6.48975 17.3353 6.11871 18.0894 6.02394C18.8435 5.92917 19.6066 6.118 20.2192 6.55098C20.8318 6.98396 21.2465 7.62758 21.3766 8.34737C21.5068 9.06715 21.3423 9.8074 20.9176 10.4134H24.3621C25.2662 10.4134 26 11.1183 26 11.9868V12.6161C26 13.4854 25.2662 14.1894 24.3621 14.1894H16.8276V10.4134H18.4655C18.7895 10.4134 19.1061 10.3212 19.3755 10.1483C19.6449 9.9754 19.8548 9.72969 19.9788 9.4422C20.1027 9.15471 20.1352 8.83837 20.072 8.53318C20.0088 8.22798 19.8528 7.94764 19.6237 7.72761C19.3946 7.50758 19.1028 7.35773 18.7851 7.29703C18.4673 7.23632 18.138 7.26748 17.8387 7.38656C17.5394 7.50564 17.2836 7.70729 17.1036 7.96603C16.9236 8.22476 16.8276 8.52894 16.8276 8.84012V10.4134H15.5172V8.84012C15.5172 7.9708 14.7834 7.26679 13.8793 7.26679ZM15.5172 15.4481H8.31034V21.112C8.31034 21.6127 8.51743 22.093 8.88603 22.447C9.25464 22.8011 9.75457 23 10.2759 23H15.5172V15.4481ZM16.8276 15.4481V23H22.7241C23.2454 23 23.7454 22.8011 24.114 22.447C24.4826 22.093 24.6897 21.6127 24.6897 21.112V15.4481H16.8276Z" fill="white"/>
<defs>
<filter id="filter0_d_39_89" x="0" y="0" width="33" height="33" filterUnits="userSpaceOnUse" color-interpolation-filters="sRGB">
<feFlood flood-opacity="0" result="BackgroundImageFix"/>
<feColorMatrix in="SourceAlpha" type="matrix" values="0 0 0 0 0 0 0 0 0 0 0 0 0 0 0 0 0 0 127 0" result="hardAlpha"/>
<feOffset dy="2"/>
<feGaussianBlur stdDeviation="1"/>
<feComposite in2="hardAlpha" operator="out"/>
<feColorMatrix type="matrix" values="0 0 0 0 0 0 0 0 0 0 0 0 0 0 0 0 0 0 0.1 0"/>
<feBlend mode="normal" in2="BackgroundImageFix" result="effect1_dropShadow_39_89"/>
<feBlend mode="normal" in="SourceGraphic" in2="effect1_dropShadow_39_89" result="shape"/>
</filter>
</defs>
</svg>
