<svg width="66" height="26" viewBox="0 0 66 26" fill="none" xmlns="http://www.w3.org/2000/svg">
<path d="M58.0438 5.78014C58.0225 5.45234 58.0777 5.1147 58.2195 4.79338C58.6899 3.72741 59.9354 3.24463 61.0014 3.71504C62.0673 4.18546 62.5501 5.43094 62.0797 6.4969C61.7511 7.24154 61.0443 7.70159 60.2846 7.75093" stroke="white" stroke-linecap="round"/>
<path d="M55.8965 5.55784C55.9254 4.906 56.1065 4.24996 56.4543 3.6434C57.6078 1.63121 60.1574 0.925517 62.1489 2.0672C64.1404 3.20888 64.8196 5.76561 63.6661 7.7778C62.8603 9.18344 61.3732 9.95152 59.871 9.89768" stroke="white" stroke-linecap="round"/>
<path d="M42.7402 24.9321V5.50977H47.7136V15.2209V24.9321H42.7402Z" fill="white"/>
<path d="M8.14064 25.1662C6.5701 25.1662 5.16534 24.8521 3.92635 24.2239C2.70482 23.5956 1.74505 22.7319 1.04703 21.6325C0.349011 20.5156 0 19.2418 0 17.8108C0 16.3799 0.349011 15.1147 1.04703 14.0154C1.74505 12.916 2.70482 12.0609 3.92635 11.4501C5.16534 10.8219 6.5701 10.5078 8.14064 10.5078C9.74608 10.5078 11.1334 10.8481 12.3026 11.5287C13.4718 12.2092 14.3006 13.169 14.7893 14.408L10.9414 16.3712C10.6099 15.708 10.1998 15.2282 9.71118 14.9315C9.22256 14.6174 8.69033 14.4603 8.11446 14.4603C7.5386 14.4603 7.01508 14.5912 6.54392 14.853C6.07276 15.1147 5.69757 15.4986 5.41837 16.0047C5.15661 16.4933 5.02573 17.0954 5.02573 17.8108C5.02573 18.5437 5.15661 19.1632 5.41837 19.6693C5.69757 20.1754 6.07276 20.5593 6.54392 20.821C7.01508 21.0828 7.5386 21.2137 8.11446 21.2137C8.69033 21.2137 9.22256 21.0653 9.71118 20.7687C10.1998 20.4546 10.6099 19.966 10.9414 19.3028L14.7893 21.266C14.3006 22.505 13.4718 23.4648 12.3026 24.1453C11.1334 24.8259 9.74608 25.1662 8.14064 25.1662Z" fill="white"/>
<path d="M21.8422 24.932V10.7447H26.8155V24.932H21.8422ZM24.3289 9.1742C23.4214 9.1742 22.6885 8.92117 22.1301 8.41511C21.5717 7.90905 21.2925 7.28083 21.2925 6.53046C21.2925 5.78009 21.5717 5.15188 22.1301 4.64581C22.6885 4.13975 23.4214 3.88672 24.3289 3.88672C25.2363 3.88672 25.9692 4.13103 26.5276 4.61964C27.086 5.0908 27.3652 5.70157 27.3652 6.45193C27.3652 7.23721 27.086 7.8916 26.5276 8.41511C25.9867 8.92117 25.2537 9.1742 24.3289 9.1742Z" fill="white"/>
<path d="M15.542 24.95V3.88672H20.4499V24.95H15.542Z" fill="white"/>
<path d="M35.543 25.0881C33.9724 25.0881 32.5677 24.774 31.3287 24.1457C30.1072 23.5175 29.1474 22.6537 28.4494 21.5543C27.7514 20.4375 27.4023 19.1636 27.4023 17.7327C27.4023 16.3018 27.7514 15.0366 28.4494 13.9372C29.1474 12.8378 30.1072 11.9828 31.3287 11.372C32.5677 10.7438 33.9724 10.4297 35.543 10.4297C37.1484 10.4297 38.5357 10.77 39.7049 11.4505C40.8741 12.1311 41.703 13.0909 42.1916 14.3299L38.3438 16.293C38.0122 15.6299 37.6021 15.15 37.1135 14.8534C36.6249 14.5393 36.0927 14.3822 35.5168 14.3822C34.9409 14.3822 34.4174 14.5131 33.9463 14.7748C33.4751 15.0366 33.0999 15.4205 32.8207 15.9266C32.559 16.4152 32.4281 17.0172 32.4281 17.7327C32.4281 18.4656 32.559 19.0851 32.8207 19.5912C33.0999 20.0972 33.4751 20.4811 33.9463 20.7429C34.4174 21.0047 34.9409 21.1355 35.5168 21.1355C36.0927 21.1355 36.6249 20.9872 37.1135 20.6906C37.6021 20.3764 51.0992 11.0928 51.4308 10.4297L55.2786 12.3929C54.79 13.6318 40.8741 23.3866 39.7049 24.0672C38.5357 24.7478 37.1484 25.0881 35.543 25.0881Z" fill="white"/>
<path d="M51.227 15.6445C49.4887 15.6445 47.4029 17.8327 47.2393 17.9963L52.5562 24.9492H58.5889L51.227 15.6445Z" fill="white"/>
<path d="M42.9338 17.7757L51.6902 11.2478L49.1823 9.26659C48.6212 8.92998 49.0069 8.76393 49.2699 8.72298L59.2298 6.23161C60.4081 5.69837 60.1183 6.40685 59.8261 6.82774L55.2155 16.1046C54.8789 16.6658 54.6543 16.245 54.5842 15.9644L53.3388 13.0712L44.9402 20.3145C44.5054 20.7214 44.0693 20.3088 43.9056 20.0516C43.9056 20.0516 43.2496 19.0382 43.0813 18.8418C42.6603 18.3509 42.8286 17.951 42.9338 17.7757Z" fill="white"/>
</svg>
