<svg width="27" height="27" viewBox="0 0 27 27" fill="none" xmlns="http://www.w3.org/2000/svg">
<circle cx="13.5" cy="13.5" r="13.5" fill="#72AF99"/>
<path fill-rule="evenodd" clip-rule="evenodd" d="M6 9C6 8.46957 6.21071 7.96086 6.58579 7.58579C6.96086 7.21071 7.46957 7 8 7H8.91467C9.488 7 9.988 7.39067 10.1273 7.94667L10.864 10.8953C10.9237 11.134 10.9116 11.385 10.8293 11.6168C10.747 11.8487 10.5982 12.0511 10.4013 12.1987L9.53933 12.8453C9.44933 12.9127 9.43 13.0113 9.45533 13.08C9.83159 14.1032 10.4257 15.0325 11.1966 15.8034C11.9675 16.5743 12.8968 17.1684 13.92 17.5447C13.9887 17.57 14.0867 17.5507 14.1547 17.4607L14.8013 16.5987C14.9489 16.4018 15.1513 16.253 15.3832 16.1707C15.615 16.0884 15.866 16.0763 16.1047 16.136L19.0533 16.8727C19.6093 17.012 20 17.512 20 18.086V19C20 19.5304 19.7893 20.0391 19.4142 20.4142C19.0391 20.7893 18.5304 21 18 21H16.5C10.7013 21 6 16.2987 6 10.5V9Z" fill="white"/>
</svg>
