<svg width="34" height="34" viewBox="0 0 34 34" fill="none" xmlns="http://www.w3.org/2000/svg">
<g filter="url(#filter0_d_39_82)">
<circle cx="17" cy="15" r="15" fill="white"/>
<circle cx="17" cy="15" r="14.5" stroke="url(#paint0_linear_39_82)" stroke-opacity="0.8"/>
</g>
<path d="M11.6043 21.5499C11.6192 21.525 11.6313 21.5094 11.6398 21.5H22.3602C22.3687 21.5094 22.3808 21.525 22.3957 21.5499C22.4501 21.6405 22.5 21.7983 22.5 22C22.5 22.2017 22.4501 22.3595 22.3957 22.4501C22.3808 22.475 22.3687 22.4906 22.3602 22.5H11.6398C11.6313 22.4906 11.6192 22.475 11.6043 22.4501C11.5499 22.3595 11.5 22.2017 11.5 22C11.5 21.7983 11.5499 21.6405 11.6043 21.5499ZM22.3459 21.4874C22.3459 21.4871 22.3476 21.488 22.3507 21.4907C22.3474 21.4889 22.3458 21.4876 22.3459 21.4874ZM22.3459 22.5126C22.3458 22.5124 22.3474 22.5111 22.3507 22.5093C22.3476 22.512 22.3459 22.5129 22.3459 22.5126ZM11.6541 22.5126C11.6541 22.5129 11.6524 22.512 11.6493 22.5094C11.6526 22.5111 11.6542 22.5124 11.6541 22.5126ZM11.6493 21.4906C11.6524 21.488 11.6541 21.4871 11.6541 21.4874C11.6542 21.4876 11.6526 21.4889 11.6493 21.4906Z" fill="white" stroke="#F45DAA"/>
<path d="M25.3252 10.0999L25.3252 10.1L25.3344 10.0976C25.373 10.0877 25.4249 10.1002 25.4607 10.1389L25.4606 10.1389L25.4677 10.1463C25.4953 10.1749 25.5092 10.2238 25.4934 10.2726L25.4923 10.2762L22.9208 18.4063C22.9207 18.4064 22.9207 18.4066 22.9206 18.4067C22.9037 18.4594 22.8538 18.5 22.7864 18.5H11.2136C11.1462 18.5 11.0963 18.4594 11.0793 18.4066C11.0793 18.4065 11.0793 18.4064 11.0792 18.4063L8.50775 10.2762L8.50776 10.2762L8.50659 10.2726C8.49075 10.2238 8.50465 10.1749 8.5323 10.1463L8.53237 10.1463L8.53929 10.1389C8.56746 10.1084 8.62052 10.088 8.67736 10.1005L13.3425 11.202L13.7122 11.2892L13.8954 10.9564L16.8722 5.54867L16.8726 5.54809C16.8771 5.53984 16.9097 5.5 17 5.5C17.0903 5.5 17.1229 5.53984 17.1274 5.54809L17.1278 5.54867L20.1046 10.9564L20.2878 11.2892L20.6575 11.202L25.3252 10.0999Z" fill="white" stroke="#F45DAA"/>
<defs>
<filter id="filter0_d_39_82" x="0" y="0" width="34" height="34" filterUnits="userSpaceOnUse" color-interpolation-filters="sRGB">
<feFlood flood-opacity="0" result="BackgroundImageFix"/>
<feColorMatrix in="SourceAlpha" type="matrix" values="0 0 0 0 0 0 0 0 0 0 0 0 0 0 0 0 0 0 127 0" result="hardAlpha"/>
<feOffset dy="2"/>
<feGaussianBlur stdDeviation="1"/>
<feComposite in2="hardAlpha" operator="out"/>
<feColorMatrix type="matrix" values="0 0 0 0 0 0 0 0 0 0 0 0 0 0 0 0 0 0 0.1 0"/>
<feBlend mode="normal" in2="BackgroundImageFix" result="effect1_dropShadow_39_82"/>
<feBlend mode="normal" in="SourceGraphic" in2="effect1_dropShadow_39_82" result="shape"/>
</filter>
<linearGradient id="paint0_linear_39_82" x1="17" y1="0" x2="17" y2="30" gradientUnits="userSpaceOnUse">
<stop stop-color="#E24CEA"/>
<stop offset="1" stop-color="#FB6490"/>
</linearGradient>
</defs>
</svg>
