<svg width="36" height="36" viewBox="0 0 36 36" fill="none" xmlns="http://www.w3.org/2000/svg">
<path fill-rule="evenodd" clip-rule="evenodd" d="M0 17.875C0 8.00291 8.00291 0 17.875 0C27.7471 0 35.75 8.00291 35.75 17.875C35.75 27.7471 27.7471 35.75 17.875 35.75C8.00291 35.75 0 27.7471 0 17.875Z" fill="url(#paint0_linear_39_88)"/>
<path d="M24.25 25H10.75C10.3353 25 10 25.447 10 26C10 26.553 10.3353 27 10.75 27H24.25C24.6648 27 25 26.553 25 26C25 25.447 24.6648 25 24.25 25Z" fill="white"/>
<path d="M27.0787 12.6018L21.633 13.94L18.1601 7.37346C17.8975 6.87551 17.1025 6.87551 16.8399 7.37346L13.367 13.94L7.92131 12.6018C7.65878 12.5396 7.38124 12.6252 7.20122 12.8275C7.0137 13.0297 6.95369 13.3254 7.0362 13.5899L10.0366 23.4632C10.1341 23.7822 10.4191 24 10.7492 24H24.2508C24.5809 24 24.8659 23.7822 24.9634 23.4632L27.9638 13.5899C28.0463 13.3254 27.9863 13.0297 27.7988 12.8275C27.6188 12.6252 27.3412 12.5318 27.0787 12.6018Z" fill="white"/>
<defs>
<linearGradient id="paint0_linear_39_88" x1="17.875" y1="0" x2="17.875" y2="35.75" gradientUnits="userSpaceOnUse">
<stop stop-color="#E14BEE"/>
<stop offset="1" stop-color="#FD668A"/>
</linearGradient>
</defs>
</svg>
