<svg width="29" height="26" viewBox="0 0 29 26" fill="none" xmlns="http://www.w3.org/2000/svg">
<path d="M1 1H2.92976C3.63985 1 4.25944 1.45733 4.44322 2.11333L4.97649 4.02933M4.97649 4.02933C12.7326 3.82118 20.4813 4.64687 28 6.48267C26.8527 9.75467 25.4896 12.9333 23.9288 16H8.30972M4.97649 4.02933L8.30972 16M8.30972 16C7.20191 16 6.13948 16.4214 5.35614 17.1716C4.57281 17.9217 4.13274 18.9391 4.13274 20H26.0619M6.22123 24C6.22123 24.2652 6.11121 24.5196 5.91537 24.7071C5.71954 24.8946 5.45393 25 5.17698 25C4.90003 25 4.63442 24.8946 4.43859 24.7071C4.24275 24.5196 4.13274 24.2652 4.13274 24C4.13274 23.7348 4.24275 23.4804 4.43859 23.2929C4.63442 23.1054 4.90003 23 5.17698 23C5.45393 23 5.71954 23.1054 5.91537 23.2929C6.11121 23.4804 6.22123 23.7348 6.22123 24ZM23.9734 24C23.9734 24.2652 23.8634 24.5196 23.6675 24.7071C23.4717 24.8946 23.2061 25 22.9291 25C22.6522 25 22.3866 24.8946 22.1908 24.7071C21.9949 24.5196 21.8849 24.2652 21.8849 24C21.8849 23.7348 21.9949 23.4804 22.1908 23.2929C22.3866 23.1054 22.6522 23 22.9291 23C23.2061 23 23.4717 23.1054 23.6675 23.2929C23.8634 23.4804 23.9734 23.7348 23.9734 24Z" stroke="white" stroke-width="2" stroke-linecap="round" stroke-linejoin="round"/>
</svg>
